Coordinates
version=1
nRows=6
nColumns=107
inDegrees=yes

Units are S.I. units (second, meters, Newtons, ...)
If the header above contains a line with 'inDegrees', this indicates whether rotational values are in degrees (yes) or radians (no).

endheader
time	sternoclavicular_r2	sternoclavicular_r3	unrotscap_r3	unrotscap_r2	acromioclavicular_r2	acromioclavicular_r3	acromioclavicular_r1	unrothum_r1	unrothum_r3	unrothum_r2	elv_angle	shoulder_elv	shoulder1_r2	shoulder_rot	elbow_flexion	pro_sup	deviation	flexion	proximal_distal_r1	proximal_distal_r3	cmc_flexion	cmc_abduction	mp_flexion	ip_flexion	mcp2_flexion	mcp2_abduction	pm2_flexion	md2_flexion	mcp3_flexion	mcp3_abduction	pm3_flexion	md3_flexion	mcp4_flexion	mcp4_abduction	pm4_flexion	md4_flexion	mcp5_flexion	mcp5_abduction	pm5_flexion	md5_flexion	bicpt_tx	bicpt_ty	bicpt_tz	bicpt2_tx	bicpt2_ty	bicpt2_tz	ptpt_tx	ptpt_ty	ptpt_tz	FCUpt_tx	FCUpt_ty	FCUpt_tz	EDCpt_tx	EDCpt_ty	EDCpt_tz	APLpt_tx	APLpt_ty	APLpt_tz	FPLpt_tx	FPLpt_ty	FPLpt_tz	FPLpt2_tx	FPLpt2_ty	FPLpt2_tz	PEC1pt2_tx	PEC1pt2_ty	PEC1pt2_tz	PEC1pt3_tx	PEC1pt3_ty	PEC1pt3_tz	PEC2pt2_tx	PEC2pt2_ty	PEC2pt2_tz	PEC2pt3_tx	PEC2pt3_ty	PEC2pt3_tz	PEC3pt2_tx	PEC3pt2_ty	PEC3pt2_tz	PEC3pt3_tx	PEC3pt3_ty	PEC3pt3_tz	DELT2pt2a_tx	DELT2pt2a_ty	DELT2pt2a_tz	DELT2pt2_tx	DELT2pt2_ty	DELT2pt2_tz	LAT1pt2_tx	LAT1pt2_ty	LAT1pt2_tz	LAT1pt3_tx	LAT1pt3_ty	LAT1pt3_tz	LAT2pt2_tx	LAT2pt2_ty	LAT2pt2_tz	LAT2pt3_tx	LAT2pt3_ty	LAT2pt3_tz	LAT3pt2_tx	LAT3pt2_ty	LAT3pt2_tz	LAT3pt3_tx	LAT3pt3_ty	LAT3pt3_tz
      0.36666667	     -0.32398934	      0.13722659	     -0.13722659	      0.32398934	     -0.06560125	      0.53016624	      0.23830608	     -0.23830608	     -0.53016624	      0.06560125	     98.90541144	     76.70735697	     -1.72622508	    -21.95301509	     28.18799077	     39.66005643	      0.18211126	     -1.03521470	      0.22000523	     -0.51760735	      0.87522532	     -4.31629570	    -33.62259597	    -38.16040858	     82.99709447	     12.81241645	     84.66997159	     83.79103518	     81.27132237	      5.66532501	     83.18232019	     50.04859014	     80.48770817	    -11.27869610	     91.40579196	     43.42354954	     88.55393907	    -13.62487662	     84.79878799	      5.71325356	      0.00083237	     -0.03083077	     -0.00482039	      0.01657364	     -0.01785741	     -0.00750624	      0.00461957	     -0.06679486	     -0.00324483	      0.00774603	     -0.18350212	     -0.00038396	     -0.00475920	      0.00136643	      0.00014883	      0.00016170	      0.00006468	      0.00032340	      0.00020697	      0.00062092	      0.00034927	      0.00002136	     -0.00002146	     -0.00002575	      0.00251430	      0.00882135	      0.00613659	     -0.00822474	      0.01985870	     -0.01883593	      0.00251430	      0.00882135	      0.00613659	      0.00055400	      0.01840978	     -0.00967366	      0.00396834	      0.00490544	      0.01601730	      0.00000000	      0.00786986	      0.00000000	     -0.00720197	     -0.03328250	     -0.00648956	      0.01487774	     -0.00049266	     -0.00400583	     -0.00089492	      0.01500056	     -0.00613659	      0.00247168	      0.02164854	     -0.01789840	     -0.00600875	      0.01299765	     -0.00549737	     -0.01252888	      0.02744421	     -0.03072558	     -0.02352361	      0.01453179	     -0.00737244	     -0.01559718	      0.03170573	     -0.03839633
      0.40000000	     -0.32254260	      0.13661382	     -0.13661382	      0.32254260	     -0.06530832	      0.52779883	      0.23724194	     -0.23724194	     -0.52779883	      0.06530832	     99.26890000	     76.36482704	     -1.73256915	    -23.85221987	     28.22774694	     41.41160612	      0.17156889	     -1.03594689	      0.20874971	     -0.51797344	      0.74343006	     -4.01961516	    -33.55756933	    -38.36307472	     83.25040503	     12.80593719	     84.72463404	     83.44263109	     81.18579946	      5.59212606	     83.09449268	     49.88404472	     80.64523329	    -11.31325588	     91.10988857	     43.89817492	     88.56452835	    -13.62552697	     84.51734465	      5.71808099	      0.00083369	     -0.03083533	     -0.00482113	      0.01657477	     -0.01786821	     -0.00731794	      0.00449015	     -0.06687855	     -0.00338593	      0.00792266	     -0.18346542	     -0.00039569	     -0.00496938	      0.00143797	      0.00013575	      0.00016118	      0.00006447	      0.00032235	      0.00020631	      0.00061892	      0.00034814	      0.00001873	     -0.00001828	     -0.00002193	      0.00250307	      0.00878196	      0.00610919	     -0.00818801	      0.01977002	     -0.01875182	      0.00250307	      0.00878196	      0.00610919	      0.00055152	      0.01832757	     -0.00963046	      0.00395542	      0.00488354	      0.01598590	      0.00000000	      0.00779923	      0.00000000	     -0.00716981	     -0.03313388	     -0.00643094	      0.01589995	     -0.00055310	     -0.00474919	     -0.00089092	      0.01493358	     -0.00610919	      0.00246065	      0.02155187	     -0.01781847	     -0.00598192	      0.01293961	     -0.00547282	     -0.01247293	      0.02732166	     -0.03058838	     -0.02341857	      0.01446690	     -0.00733951	     -0.01552753	      0.03156416	     -0.03822487
      0.43333333	     -0.32168620	      0.13625109	     -0.13625109	      0.32168620	     -0.06513491	      0.52639745	      0.23661203	     -0.23661203	     -0.52639745	      0.06513491	     99.44702143	     76.16206759	     -1.73567796	    -24.89660602	     28.32438737	     42.49944858	      0.16985276	     -1.02495311	      0.20690024	     -0.51247656	      0.72128007	     -4.11135045	    -33.45824060	    -38.61366977	     83.29988269	     12.81709438	     84.73185787	     83.76468517	     81.15257728	      5.59730476	     83.09320422	     50.46556467	     80.56475610	    -11.27294760	     91.28326640	     44.15947957	     88.41500064	    -13.63878703	     84.64047804	      5.71061496	      0.00083688	     -0.03084641	     -0.00482291	      0.01657197	     -0.01789446	     -0.00719885	      0.00440977	     -0.06693052	     -0.00347356	      0.00803284	     -0.18344219	     -0.00040182	     -0.00509992	      0.00148288	      0.00012679	      0.00016890	      0.00006756	      0.00033781	      0.00021620	      0.00064859	      0.00036483	      0.00001849	     -0.00001776	     -0.00002132	      0.00249643	      0.00875865	      0.00609297	     -0.00816627	      0.01971753	     -0.01870203	      0.00249643	      0.00875865	      0.00609297	      0.00055006	      0.01827891	     -0.00960489	      0.00394775	      0.00487057	      0.01596719	      0.00000000	      0.00775758	      0.00000000	     -0.00715078	     -0.03304590	     -0.00639636	      0.01644153	     -0.00058688	     -0.00518024	     -0.00088856	      0.01489393	     -0.00609297	      0.00245411	      0.02149465	     -0.01777116	     -0.00596603	      0.01290525	     -0.00545829	     -0.01243981	      0.02724912	     -0.03050717	     -0.02335639	      0.01442849	     -0.00732003	     -0.01548630	      0.03148035	     -0.03812338
      0.46666667	     -0.32165739	      0.13623889	     -0.13623889	      0.32165739	     -0.06512908	      0.52635030	      0.23659084	     -0.23659084	     -0.52635030	      0.06512908	     99.44289123	     76.15524585	     -1.73560587	    -24.89590637	     28.31889794	     42.49961960	      0.16984745	     -1.02494737	      0.20689448	     -0.51247368	      0.72122347	     -4.11110347	    -33.45828742	    -38.61366824	     83.29955800	     12.81692901	     84.73180470	     83.76465682	     81.15247563	      5.59727232	     83.09324504	     50.46558216	     80.56479005	    -11.27308743	     91.28295702	     44.15939851	     88.41533641	    -13.63867482	     84.64037400	      5.71061883	      0.00083670	     -0.03084578	     -0.00482281	      0.01657193	     -0.01789297	     -0.00719881	      0.00440976	     -0.06693053	     -0.00347357	      0.00803286	     -0.18344218	     -0.00040181	     -0.00509994	      0.00148289	      0.00012678	      0.00016891	      0.00006756	      0.00033781	      0.00021620	      0.00064860	      0.00036484	      0.00001827	     -0.00001774	     -0.00002129	      0.00249620	      0.00875786	      0.00609242	     -0.00816554	      0.01971576	     -0.01870036	      0.00249620	      0.00875786	      0.00609242	      0.00055001	      0.01827727	     -0.00960403	      0.00394750	      0.00487014	      0.01596656	      0.00000000	      0.00775618	      0.00000000	     -0.00715014	     -0.03304294	     -0.00639520	      0.01644115	     -0.00058685	     -0.00517997	     -0.00088848	      0.01489259	     -0.00609242	      0.00245389	      0.02149272	     -0.01776957	     -0.00596550	      0.01290409	     -0.00545780	     -0.01243870	      0.02724668	     -0.03050443	     -0.02335430	      0.01442720	     -0.00731937	     -0.01548491	      0.03147753	     -0.03811996
      0.50000000	     -0.32303910	      0.13682411	     -0.13682411	      0.32303910	     -0.06540885	      0.52861128	      0.23760713	     -0.23760713	     -0.52861128	      0.06540885	     99.19298961	     76.48237751	     -1.73124426	    -23.32008774	     28.10836955	     40.95592835	      0.17362898	     -1.03176184	      0.21096346	     -0.51588092	      0.75430101	     -3.80424177	    -33.62962081	    -38.67903140	     83.30444863	     12.77924992	     84.72917856	     83.49612734	     81.29459548	      5.55935847	     83.07747799	     50.71708072	     80.93022896	    -11.37850566	     90.83248142	     43.85783815	     88.84820957	    -13.62463012	     84.22878932	      5.71239856	      0.00082974	     -0.03082165	     -0.00481892	      0.01657515	     -0.01783578	     -0.00736734	      0.00452382	     -0.06685678	     -0.00334922	      0.00787662	     -0.18347505	     -0.00039286	     -0.00491470	      0.00141927	      0.00013931	      0.00016414	      0.00006566	      0.00032828	      0.00021010	      0.00063031	      0.00035455	      0.00001896	     -0.00001854	     -0.00002225	      0.00250692	      0.00879548	      0.00611860	     -0.00820062	      0.01980045	     -0.01878069	      0.00250692	      0.00879548	      0.00611860	      0.00055237	      0.01835579	     -0.00964529	      0.00395986	      0.00489106	      0.01599671	      0.00000000	      0.00782343	      0.00000000	     -0.00718085	     -0.03318488	     -0.00645102	      0.01561841	     -0.00053603	     -0.00453556	     -0.00089230	      0.01495657	     -0.00611860	      0.00246443	      0.02158504	     -0.01784590	     -0.00599112	      0.01295952	     -0.00548124	     -0.01249213	      0.02736372	     -0.03063547	     -0.02345462	      0.01448917	     -0.00735081	     -0.01555143	      0.03161274	     -0.03828371
      0.53333333	     -0.32333193	      0.13694814	     -0.13694814	      0.32333193	     -0.06546814	      0.52909046	      0.23782252	     -0.23782252	     -0.52909046	      0.06546814	     99.13496840	     76.55170745	     -1.73023160	    -22.93555254	     28.07287508	     40.65840654	      0.17923444	     -1.02428672	      0.21695202	     -0.51214336	      0.85300459	     -3.76587474	    -33.82082921	    -38.85557357	     83.40542210	     12.78619791	     84.75629306	     83.39250890	     81.37960669	      5.52657443	     83.08286370	     50.80851431	     80.90959069	    -11.39161663	     90.97985436	     43.87753049	     88.81473137	    -13.63259196	     84.45849562	      5.69718550	      0.00082856	     -0.03081758	     -0.00481827	      0.01657515	     -0.01782613	     -0.00739945	      0.00454580	     -0.06684256	     -0.00332525	      0.00784659	     -0.18348131	     -0.00039093	     -0.00487900	      0.00140709	      0.00014158	      0.00016937	      0.00006775	      0.00033873	      0.00021679	      0.00065036	      0.00036583	      0.00002093	     -0.00002092	     -0.00002511	      0.00250920	      0.00880345	      0.00612414	     -0.00820805	      0.01981840	     -0.01879771	      0.00250920	      0.00880345	      0.00612414	      0.00055287	      0.01837243	     -0.00965403	      0.00396248	      0.00489549	      0.01600307	      0.00000000	      0.00783772	      0.00000000	     -0.00718736	     -0.03321496	     -0.00646289	      0.01541261	     -0.00052376	     -0.00438376	     -0.00089310	      0.01497012	     -0.00612414	      0.00246667	      0.02160461	     -0.01786208	     -0.00599656	      0.01297127	     -0.00548621	     -0.01250346	      0.02738852	     -0.03066324	     -0.02347588	      0.01450231	     -0.00735748	     -0.01556553	      0.03164140	     -0.03831841
